<?xml version="1.0" encoding="UTF-8"?><svg xmlns="http://www.w3.org/2000/svg" viewBox="0 0 43.66 44.22"><defs><style>.d{fill:#fff;}</style></defs><g id="a"/><g id="b"><g id="c"><g><path class="d" d="M21.83,.55c-5.68,0-11.08,2.2-15.13,6.1V1.5c0-.83-.67-1.5-1.5-1.5s-1.5,.67-1.5,1.5V10.42c0,.83,.67,1.5,1.5,1.5H14.12c.83,0,1.5-.67,1.5-1.5s-.67-1.5-1.5-1.5h-5.44c3.51-3.43,8.21-5.37,13.16-5.37,10.38,0,18.83,8.45,18.83,18.84s-8.45,18.83-18.83,18.83S3,32.77,3,22.39c0-2.25,.39-4.44,1.16-6.52,.29-.78-.11-1.64-.89-1.93-.78-.29-1.64,.11-1.93,.89-.89,2.41-1.34,4.95-1.34,7.56,0,12.04,9.79,21.83,21.83,21.83s21.83-9.79,21.83-21.83S33.87,.55,21.83,.55Z"/><path class="d" d="M13.41,31.21c.29,.29,.68,.44,1.06,.44s.77-.15,1.06-.44l4.9-4.92c.38,.13,.78,.22,1.2,.22,1.99,0,3.61-1.62,3.61-3.61,0-1.46-.87-2.7-2.11-3.27V8.62c0-.83-.67-1.5-1.5-1.5s-1.5,.67-1.5,1.5v11c-1.24,.57-2.11,1.82-2.11,3.27,0,.46,.09,.9,.25,1.3l-4.87,4.89c-.58,.59-.58,1.54,0,2.12Z"/></g></g></g></svg>